# xmcd
#
# Track frame offsets:
#	150
#	11423
#	26315
#	41205
#	56023
#	69607
#	80409
#	89969
#	99784
#	114703
#	128717
#	140833
#	159170
#	170879
#	180142
#	193395
#	204267
#	219348
#	229575
#	236691
#
# Disc length: 3307
#
# Revision: 1
# Processed by: cddbd v1.5.1PL0 Copyright (c) Steve Scherf et al.
# Submitted via: ExactAudioCopy v0.90b4
# Normalized: r0:DSETVAR1
#
DISCID=130ce914
DTITLE=Various Artist - Country Superstars, Vol. 3
DYEAR=2003
DGENRE=Country
TTITLE0=Kitty Wells - It Wasn't God Who Made Honky Tonk Angels
TTITLE1=Jeannie C. Riley - Harper Valley PTA
TTITLE2=Lacy J. Dalton - Working Class Man
TTITLE3=T.G. Shepard - Motels And Memories
TTITLE4=Patsy Cline - Life's Railway To Heaven
TTITLE5=Skeeter Davis - Gonna Get Along Without You Now
TTITLE6=Roy Druskey - Second Hand Rose
TTITLE7=Dave Dudley - Truck Driving Son Of A Gun
TTITLE8=Donna Fargo - That Was Yesterday
TTITLE9=Barbara Fairchild - Teddy Bear Song
TTITLE10=Freddy Fender - Before The Next Teardrop Falls
TTITLE11=Freddy Fender - Secret Love
TTITLE12=Don Gibson - Oh Lonesome Me
TTITLE13=Johnny Paycheck - Mr. Love Maker
TTITLE14=Ferlin Husky - A Fallen Star
TTITLE15=Carl Perkins - Dixie Fried
TTITLE16=Kenny Rogers - Conditions
TTITLE17=Jimmie Rodgers - Kisses Sweeter Than Wine
TTITLE18=Buck Owens - You're For Me
TTITLE19=Jack Greene - There Goes My Everything
EXTD=
EXTT0=
EXTT1=
EXTT2=
EXTT3=
EXTT4=
EXTT5=
EXTT6=
EXTT7=
EXTT8=
EXTT9=
EXTT10=
EXTT11=
EXTT12=
EXTT13=
EXTT14=
EXTT15=
EXTT16=
EXTT17=
EXTT18=
EXTT19=
PLAYORDER=
